<?xml version="1.0" encoding="UTF-8" standalone="no"?><svg width="110" height="124" viewBox="0 0 110 124" fill="none" xmlns="http://www.w3.org/2000/svg">
<path d="M110 3.90551C109.822 31.7788 109.644 59.6625 109.456 87.5358C109.445 88.5077 108.315 89.0198 107.571 88.3928C96.0563 78.5582 84.5413 68.7132 73.0263 58.8787C72.0841 58.0739 70.7128 59.1399 71.2676 60.2478C81.5683 80.9515 91.8795 101.655 102.18 122.359C102.557 123.122 102.002 124.01 101.154 124C71.7073 123.833 42.2497 123.665 12.8026 123.509C11.9756 123.509 11.4313 122.662 11.7663 121.91C21.0306 101.143 30.3055 80.3872 39.5698 59.6207C40.0619 58.5233 38.7219 57.5096 37.8007 58.2829C25.8251 68.3161 13.8494 78.3596 1.87381 88.4032C1.13057 89.0303 0 88.4973 0 87.5253L0.554815 1.1255C0.565284 0.216246 1.59117 -0.316764 2.34488 0.205794L55.2408 36.8894C55.6386 37.1611 56.162 37.1611 56.5493 36.8789C81.2752 19.3523 102.923 4.2504 102.923 4.2504L108.21 0.832865C108.964 0.352111 109.948 0.874669 109.969 1.76302L110 3.90551Z" fill="url(#paint0_linear_136_305)"/>
<defs>
<linearGradient id="paint0_linear_136_305" x1="-130.096" y1="174.376" x2="239.208" y2="-72.4945" gradientUnits="userSpaceOnUse">
<stop offset="0.40625" stop-color="#007BE5"/>
<stop offset="0.520833" stop-color="#2A60FF"/>
<stop offset="0.697917" stop-color="#3D5EAD"/>
</linearGradient>
</defs>
</svg>
